<?xml version='1.0' encoding='utf-8'?>
<svg xmlns="http://www.w3.org/2000/svg" version="1.1" width="1025px" height="769px" viewBox="27 680 1025 769"> <g id="layer1"> <g style="fill:rgb(104,190,191); fill-opacity:1.0; stroke-linejoin: miter"> <path d="M26.999,679.4531C26.854214,679.4531,26.715359,679.5106,26.61298,679.613C26.510601,679.71533,26.453085,679.85425,26.453085,679.999L26.454084,1449.0C26.454084,1449.3015,26.6985,1449.5459,27.0,1449.5459L1052.001,1449.5469C1052.1458,1449.5469,1052.2845,1449.4894,1052.387,1449.387C1052.4894,1449.2845,1052.5469,1449.1458,1052.5469,1449.001L1052.5459,680.0C1052.5459,679.6985,1052.3015,679.4541,1052.0,679.4541L26.999,679.4531 Z"/> </g> <g style="fill:rgb(60,70,79); fill-opacity:1.0; stroke-linejoin: miter"> <path d="M215.65163,1286.1227L195.85126,1301.7556L176.17331,1308.6575Q143.76097,1386.2739,102.368286,1450.2861L993.2216,1450.2864L970.9899,1299.4999L215.65163,1286.1227 Z"/> </g> <g style="fill:rgb(0,0,0); fill-opacity:1.0; stroke-linejoin: miter"> <path d="M600.09186,1351.3927Q597.3471,1351.0516,574.36584,1350.2365Q517.49744,1348.235,483.94727,1347.18L507.526,1401.1409Q543.0517,1404.5083,558.5843,1403.7156Q576.9031,1402.9753,585.9863,1397.9729Q598.09143,1391.5242,602.86774,1376.121Q605.9861,1365.0262,605.7035,1356.0809Q605.4974,1353.569,604.2362,1352.357Q603.8381,1351.7357,600.32074,1351.4135"/> </g> <g style="fill:rgb(0,0,0); fill-opacity:1.0; stroke-linejoin: miter"> <path d="M516.3712,1108.5221L513.8495,1289.2488L648.2068,1303.97L648.63464,1304.1472L648.53064,1316.3386L615.74164,1312.0837L636.7415,1323.9631Q602.77795,1329.5151,592.6386,1331.6764Q580.2558,1334.1732,580.9963,1335.4406Q581.53644,1336.6085,600.32874,1336.4725L665.03467,1334.705Q714.7732,1353.8048,719.0416,1353.3165Q723.11615,1353.5172,716.769,1348.3993L691.7356,1330.8196L726.2192,1325.3623Q736.4125,1323.2998,734.7958,1322.312Q734.8547,1320.231,677.01117,1319.3091L676.5735,1307.1887L810.3859,1315.2756L817.4905,1120.7561L516.64215,1108.5336"/> </g> <g style="fill:rgb(217,241,245); fill-opacity:1.0; stroke-linejoin: miter"> <path d="M524.30237,1117.65L521.88934,1278.8918L801.93365,1303.1633L808.2001,1130.2698L524.53564,1117.6605"/> </g> <g style="fill:rgb(255,201,156); fill-opacity:1.0; stroke-linejoin: miter"> <path d="M395.08737,1114.8662L289.36548,1206.3562L378.58035,1220.5461Q392.69672,1216.7122,397.60748,1212.3853Q400.48965,1210.0123,401.02164,1206.0736Q401.2125,1204.4293,401.06198,1202.7667Q399.74655,1194.3507,400.09927,1194.1478Q399.76993,1193.85,402.42538,1185.1569Q402.94382,1182.8727,403.21353,1180.7059Q404.01627,1174.1246,403.80655,1164.9857Q403.468,1153.2028,401.80692,1147.3401Q401.02322,1144.6995,399.88828,1143.1475Q399.30246,1142.1018,396.5679,1140.1426Q396.28384,1139.8381,396.20975,1139.4116Q396.12418,1138.6931,396.5007,1137.5977L399.24435,1130.1436Q399.80588,1128.0193,399.71072,1126.2561Q399.74838,1122.2656,395.1351,1114.9456"/> </g> <g style="fill:rgb(255,255,255); fill-opacity:1.0; stroke-linejoin: miter"> <path d="M308.89087,1198.4683L307.65796,1198.4757Q276.2385,1197.0386,239.24588,1238.9358Q225.80399,1237.6125,206.49896,1247.2705Q182.69089,1261.7979,170.35094,1279.8932Q159.84996,1305.9967,156.77153,1349.9059Q155.30098,1391.302,167.36644,1450.287L474.8374,1450.2866L475.91058,1433.7603Q486.2372,1443.3354,495.16312,1450.2855L561.8437,1450.2866Q570.8655,1433.0087,563.78955,1421.862Q561.2014,1415.0295,547.6033,1399.4829Q481.4317,1263.3906,475.25912,1262.3184Q471.47308,1257.7919,463.29425,1255.2273Q458.39658,1253.6593,417.46786,1247.9453L367.55063,1206.975Q330.11392,1198.4683,308.89087,1198.4683 Z"/> </g> <g style="fill:rgb(0,0,0); fill-opacity:1.0; stroke-linejoin: miter"> <path d="M321.00732,1054.2068Q278.88858,1056.8457,260.57187,1090.6647Q252.16786,1108.7239,255.23473,1137.3671Q260.55292,1176.8856,270.88138,1186.5586L230.06543,1236.4724Q223.7008,1244.4484,220.10248,1250.4166Q209.80106,1266.982,211.75684,1284.1986Q213.11105,1303.5854,235.97166,1348.1287L352.04242,1351.2168Q313.81143,1277.3231,311.75482,1261.8223Q310.03558,1254.0837,310.5498,1248.2224Q310.64447,1245.2773,312.48944,1238.281L317.23508,1195.9918Q341.9959,1188.213,375.64987,1153.2487Q401.0732,1125.5518,398.57333,1107.845Q396.9204,1090.1927,372.22516,1072.96Q345.47482,1054.2898,321.365,1054.2078"/> </g> <g style="fill:rgb(255,201,156); fill-opacity:1.0; stroke-linejoin: miter"> <path d="M372.92908,1144.8489Q370.9677,1144.8591,369.3283,1147.2083Q367.68268,1149.6741,367.1467,1153.2775Q366.7524,1156.0157,367.4224,1158.9901Q367.99777,1161.6588,370.00595,1165.9872L382.02658,1151.7675Q376.3111,1144.8689,372.94714,1144.8489"/> </g> <g style="fill:rgb(0,0,0); fill-opacity:1.0; stroke-linejoin: miter"> <path d="M366.71646,1161.268L308.02963,1203.0463Q324.48663,1197.7914,335.17834,1189.9364Q347.0078,1181.5453,366.67618,1161.3099"/> </g> <g style="fill:rgb(0,0,0); fill-opacity:1.0; stroke-linejoin: miter"> <path d="M388.7327,1135.6599L377.51093,1145.9575L382.74332,1155.0363Q384.1556,1161.077,384.6393,1164.4948Q385.3998,1169.5797,385.19144,1174.3151Q385.09598,1176.527,384.77505,1179.2823Q384.61752,1180.642,384.37607,1182.3202L383.67142,1186.9161Q383.57065,1187.7074,383.65402,1187.5211Q385.01248,1183.7435,386.795,1175.2213Q388.2086,1168.2584,388.80014,1162.2406Q389.92752,1150.5765,388.73355,1135.6714"/> </g> <g style="fill:rgb(34,43,50); fill-opacity:1.0; stroke-linejoin: miter"> <path d="M153.92552,1330.284L152.15273,1345.645Q146.793,1396.7396,148.82411,1411.7797Q150.01747,1434.233,155.25041,1450.286L452.81805,1450.2866L451.7699,1381.5779Q444.33923,1363.5686,422.80457,1355.7156Q410.73694,1351.0474,392.8031,1347.5912Q381.64453,1344.7867,337.51895,1340.5869Q279.1399,1335.3782,153.92552,1330.284 Z"/> </g> <g style="fill:rgb(255,255,255); fill-opacity:1.0; stroke-linejoin: miter"> <path d="M658.5131,1369.1633L748.4771,1369.1636L838.4411,1369.1638Q838.4411,1400.2264,838.4411,1431.2891Q748.4771,1431.2893,658.5131,1431.2896Q658.5131,1400.2264,658.5131,1369.1633"/> </g> <g style="fill:rgb(255,255,255); fill-opacity:1.0; stroke-linejoin: miter"> <path d="M629.66595,1372.0983L809.5939,1372.0989L809.5939,1434.224L629.66595,1434.2246L629.66595,1372.0983"/> </g> <g style="fill:rgb(255,255,255); fill-opacity:1.0; stroke-linejoin: miter"> <path d="M636.0221,1358.4012L725.9861,1358.4015L815.95,1358.4019Q815.95,1389.4644,815.95,1420.527Q725.9861,1420.5273,636.0221,1420.5276Q636.0221,1389.4644,636.0221,1358.4012"/> </g> <g style="fill:rgb(115,205,229); fill-opacity:1.0; stroke-linejoin: miter"> <path d="M523.6227,1117.9464C523.5849,1117.9447,523.5486,1117.956,523.5215,1117.9777C523.49445,1117.9993,523.479,1118.0297,523.47845,1118.062L520.6962,1280.7484C520.6951,1280.8141,520.75714,1280.8723,520.8348,1280.8782L802.83514,1302.8328C802.87714,1302.8359,802.91785,1302.8258,802.9483,1302.8043C802.97894,1302.7831,802.99677,1302.7523,802.9979,1302.7188L809.11444,1130.2083C809.1169,1130.137,809.04724,1130.0762,808.95874,1130.0724L523.6227,1117.9464 Z"/> </g> <g style="fill:rgb(0,0,0); fill-opacity:1.0; stroke-linejoin: miter"> <path d="M607.6334,1227.9752L664.1503,1232.7369L720.6673,1237.4988Q717.88055,1270.5782,715.09375,1303.6577Q658.5767,1298.897,602.0597,1294.1362Q604.84656,1261.0557,607.6334,1227.9752"/> </g> <g style="fill:rgb(0,0,0); fill-opacity:1.0; stroke-linejoin: miter"> <path d="M683.6309,1207.3716L684.3542,1205.3851Q686.70166,1199.3942,687.4695,1193.615Q687.9085,1189.7694,686.76373,1186.1454Q683.915,1178.5973,675.0143,1173.8049Q672.9148,1172.6886,670.6832,1171.9037L668.44464,1171.2181Q666.1867,1170.6234,663.9438,1170.4548Q658.8502,1170.2173,655.136,1171.5743Q644.9125,1175.3324,641.6883,1184.3333Q640.56067,1187.782,640.4143,1191.5847Q640.2716,1197.3135,640.9556,1203.3408L683.6309,1207.3716"/> </g> <g style="fill:rgb(83,93,102); fill-opacity:1.0; stroke-linejoin: miter"> <path d="M622.08276,1288.8219L622.3832,1287.3054Q623.39453,1282.0024,623.312,1279.819Q623.3889,1276.8739,622.17694,1271.2239L622.27094,1250.8098L618.9804,1246.2822Q618.1138,1243.8392,615.4913,1239.3265Q610.5817,1236.2378,606.529,1235.585L585.02747,1233.1575Q581.3698,1233.106,579.1974,1232.8611Q575.2001,1232.3584,572.79425,1231.5225Q560.31616,1226.9075,555.1109,1220.6268Q553.1335,1217.3318,556.52716,1214.0632Q570.407,1204.6676,573.4372,1203.9088Q576.2547,1202.8081,579.51056,1202.3887Q585.13214,1199.1093,588.5178,1198.1631Q592.17456,1197.1398,596.97266,1198.9073Q611.3954,1192.7468,615.6815,1192.8828Q617.88416,1192.856,619.72327,1194.8113L625.6749,1205.8497Q628.024,1205.8804,631.0021,1207.5128Q635.1045,1205.7883,636.56525,1205.9672Q638.248,1206.0278,640.082,1208.0314L685.366,1208.6039Q687.54364,1207.9037,688.6907,1207.9849Q690.33704,1207.8864,694.90405,1209.8904L697.192,1209.4664L702.4835,1197.5759L724.931,1202.9216L727.287,1203.0856Q729.98834,1202.3622,731.6898,1202.2723L734.0101,1202.4451Q735.97906,1202.8722,738.8683,1204.3297Q751.7848,1207.2891,758.85944,1210.0692Q776.2266,1217.5973,777.5632,1227.822Q775.31964,1233.7705,765.46576,1235.7266Q761.0523,1236.9558,755.0357,1237.9285Q749.97876,1238.8309,739.1032,1239.5371L725.88635,1242.1105Q722.0883,1242.694,717.1768,1241.9813Q713.6155,1244.0244,712.2125,1245.5283Q705.141,1253.4313,701.6657,1272.2983Q700.994,1278.4149,701.63837,1281.9872L705.5516,1295.2806L622.08276,1288.8219"/> </g> <g style="fill:rgb(255,184,164); fill-opacity:1.0; stroke-linejoin: miter"> <path d="M642.6812,1208.1858L642.5741,1208.2576Q641.9283,1208.7345,640.8169,1208.0564Q639.77545,1207.4878,639.46625,1206.3999L639.61816,1201.5295Q639.7104,1200.6405,640.39856,1198.6536Q638.38434,1200.663,637.454,1201.0239Q633.6476,1201.435,623.6081,1205.758L616.1205,1195.8337L626.3132,1192.4553Q638.69806,1180.4613,640.6493,1178.096Q643.92084,1175.0125,645.4302,1174.1184Q647.92645,1172.2563,652.65424,1171.1925Q654.208,1170.7303,661.2416,1170.3562Q662.45,1170.2368,663.02747,1170.751Q664.8253,1172.1783,660.41754,1172.2024Q664.5201,1172.8628,663.661,1173.6913Q655.60535,1174.9749,652.43005,1176.2985Q649.2507,1177.7052,648.11597,1180.4048Q650.04297,1178.6361,656.6936,1177.1447Q665.5196,1175.8915,663.8049,1178.5149Q663.4526,1179.6265,656.8974,1179.8485L649.1778,1183.3097L648.64264,1186.7789Q660.43,1189.8088,663.6356,1189.6625Q665.0546,1190.103,678.72345,1187.9518L682.91895,1203.4543L684.42773,1202.0759Q678.907,1194.2606,678.5603,1187.2755Q675.90234,1184.8485,672.62366,1183.3552Q669.5462,1181.833,662.9382,1180.2297Q662.2928,1180.048,662.1043,1179.5494Q663.17456,1177.889,669.4445,1178.9108Q672.9538,1179.395,678.7355,1182.5331Q672.552,1178.6709,669.66986,1177.2158Q668.4216,1176.5991,667.58984,1176.338L663.9345,1175.4501Q662.3278,1174.7561,662.2378,1174.0852Q662.7364,1172.5574,671.67194,1174.9839Q673.563,1175.4382,676.35535,1176.7228Q680.4171,1178.666,679.97076,1178.7866Q669.0218,1174.882,665.69104,1172.4437Q664.27045,1171.1914,666.5783,1171.0658Q667.4929,1170.8132,673.118,1172.3499Q677.47485,1172.8986,685.27783,1180.234Q688.3361,1183.2001,690.19415,1185.7363Q691.1381,1186.7727,695.0148,1193.3727Q695.61536,1194.2751,696.3254,1195.026Q698.3444,1197.0378,702.3435,1198.5894Q703.7351,1201.5629,702.3422,1204.9019Q700.51654,1209.6003,698.22656,1209.2247Q690.89264,1206.5615,685.29083,1203.214L685.7249,1205.2191L685.2138,1206.4458Q685.1263,1210.066,684.86365,1210.2136Q684.0013,1212.1855,681.521,1211.0453Q681.103,1216.5424,678.2551,1220.7955Q676.35425,1223.5276,674.65125,1224.993L666.8398,1231.566Q666.3661,1231.9497,663.54584,1232.3207Q660.4514,1232.3734,658.31305,1231.5396Q657.1003,1231.0824,656.08875,1230.269L649.7327,1224.7952Q647.6014,1222.8237,646.096,1219.3711Q644.7359,1216.423,642.6812,1208.1858"/> </g> <g style="fill:rgb(255,255,255); fill-opacity:1.0; stroke-linejoin: miter"> <path d="M656.13043,1220.506L656.5206,1220.6263Q658.07684,1221.1274,659.6732,1221.4738Q661.0127,1221.7537,662.31793,1221.7751Q662.85956,1221.7811,663.4129,1221.7416Q663.684,1221.744,665.09454,1221.5408Q666.5109,1221.3177,669.12744,1220.6605L667.71,1224.2848Q665.47144,1224.6093,664.29297,1224.7141Q662.6568,1224.8467,662.03357,1224.8121Q660.2839,1224.8075,657.44855,1224.0745L656.13043,1220.506"/> </g> <g style="fill:rgb(255,255,255); fill-opacity:1.0; stroke-linejoin: miter"> <path d="M672.9358,1219.1959L672.9357,1219.1959L672.9357,1219.1959L672.9358,1219.1959"/> </g> <g style="fill:rgb(255,0,0); fill-opacity:0.105882354; stroke-linejoin: miter"> <path d="M656.39966,1216.1993L661.71075,1220.4441L667.1588,1216.9412L661.81445,1218.6315L656.39966,1216.1993"/> </g> <g style="fill:rgb(0,0,0); fill-opacity:1.0; stroke-linejoin: miter"> <path d="M656.9911,1207.2935L656.9911,1207.2936Q655.4836,1207.2966,654.6405,1207.2502Q654.30347,1207.2328,653.96515,1207.2041L653.62646,1207.172Q653.2873,1207.1366,652.9464,1207.0858Q652.6054,1207.0345,652.2626,1206.9678Q652.09204,1206.9419,651.2309,1206.7399Q650.3691,1206.531,648.8078,1206.0688L656.9911,1207.2935"/> </g> <g style="fill:rgb(0,0,0); fill-opacity:1.0; stroke-linejoin: miter"> <path d="M656.92,1205.2682L656.64844,1205.1357Q654.9075,1204.2587,653.446,1203.8263Q652.63153,1203.5918,651.7279,1203.418Q650.593,1203.2006,649.1037,1202.9805L656.92,1205.2682"/> </g> <g style="fill:rgb(0,0,0); fill-opacity:1.0; stroke-linejoin: miter"> <path d="M668.31067,1205.9072L668.5826,1205.7957Q670.32654,1205.0511,671.79517,1204.7307Q672.61456,1204.5585,673.5249,1204.454Q674.6693,1204.3234,676.1735,1204.2173L668.31067,1205.9072"/> </g> <g style="fill:rgb(0,0,0); fill-opacity:1.0; stroke-linejoin: miter"> <path d="M668.2568,1207.9326L668.2568,1207.9329Q669.773,1208.0547,670.6214,1208.0747Q670.96063,1208.0837,671.30133,1208.0818L671.64246,1208.0762Q671.98395,1208.0673,672.32733,1208.0432Q672.67096,1208.0189,673.0162,1207.9786Q673.188,1207.9663,674.05585,1207.8312Q674.9247,1207.6893,676.4998,1207.3479L668.2568,1207.9326"/> </g> <g style="fill:rgb(0,0,0); fill-opacity:0.20392157; stroke-linejoin: miter"> <path d="M668.2448,1231.5289L668.59894,1231.2142Q670.15265,1229.8282,670.9064,1229.1005Q671.6616,1228.3348,671.89557,1228.0669L673.0528,1226.6504Q673.3313,1226.3658,673.5596,1226.276Q673.982,1226.0575,674.9086,1226.4662Q675.31006,1226.5919,677.2747,1227.9001L673.7289,1229.4486L668.2448,1231.5289"/> </g> <g style="fill:rgb(0,0,0); fill-opacity:1.0; stroke-linejoin: miter"> <path d="M659.15265,1235.6754L659.15265,1235.6755L659.15265,1235.6754L659.15265,1235.6755"/> </g> <g style="fill:rgb(0,0,0); fill-opacity:0.20784314; stroke-linejoin: miter"> <path d="M655.88525,1230.9474L655.50037,1230.6246Q653.948,1229.3212,652.9888,1228.4613Q652.28174,1227.7979,651.90045,1227.4082L650.6074,1225.9706Q650.27234,1225.6517,650.00714,1225.5624Q649.5212,1225.3865,648.7702,1225.7399Q648.1304,1226.0109,646.5557,1227.1212L650.22327,1228.7434L655.88525,1230.9474"/> </g> <g style="fill:rgb(255,255,255); fill-opacity:1.0; stroke-linejoin: miter"> <path d="M663.30676,1236.5741L663.268,1236.7506Q663.091,1237.2756,662.54224,1237.5283Q661.99005,1237.7803,661.30945,1237.6228Q660.6636,1237.4454,660.3253,1236.9763Q660.2171,1236.8248,660.1566,1236.6555L660.1098,1236.4835Q660.0758,1236.3082,660.0997,1236.126Q660.19214,1235.5697,660.69446,1235.2618Q661.19684,1234.9536,661.8801,1235.0345Q662.55975,1235.1437,662.96234,1235.5781Q663.36505,1236.0127,663.30676,1236.5741"/> </g> <g style="fill:rgb(255,255,255); fill-opacity:1.0; stroke-linejoin: miter"> <path d="M663.3848,1254.9296L663.3461,1255.1055Q663.2675,1255.338,663.1156,1255.5166Q662.9095,1255.7278,662.8465,1255.7542Q662.7429,1255.823,662.62103,1255.8787Q662.376,1255.9895,662.1054,1256.0194Q662.04175,1256.0396,661.68536,1256.0188Q661.54065,1256.0037,661.38947,1255.9679Q661.24615,1255.9282,661.1179,1255.8739Q661.0443,1255.8556,660.76746,1255.679Q660.55664,1255.5276,660.40643,1255.3188Q660.0759,1254.819,660.2068,1254.3496Q660.26807,1254.1155,660.4101,1253.9303Q660.4812,1253.8379,660.5725,1253.7577Q660.60693,1253.709,660.889,1253.5464Q661.3529,1253.3134,661.9597,1253.3877Q662.2614,1253.4371,662.5086,1253.5507Q662.80554,1253.7067,662.8484,1253.757Q662.95154,1253.8376,663.04083,1253.9342Q663.13025,1254.031,663.1969,1254.1338Q663.2444,1254.1814,663.34564,1254.4563Q663.4107,1254.6807,663.3848,1254.9296"/> </g> <g style="fill:rgb(255,255,255); fill-opacity:1.0; stroke-linejoin: miter"> <path d="M662.77655,1273.1252L662.73804,1273.3008Q662.6335,1273.5775,662.5077,1273.71Q662.31525,1273.903,662.274,1273.9253Q662.14294,1274.0109,662.014,1274.0693Q661.4802,1274.3099,660.85077,1274.1688Q660.7081,1274.1399,660.49384,1274.0526Q660.40546,1274.0138,660.3246,1273.9635Q660.04626,1273.8075,659.872,1273.5924Q659.80133,1273.5127,659.7346,1273.3916Q659.6894,1273.3354,659.59985,1273.0641Q659.5441,1272.8483,659.5794,1272.6385Q659.6754,1272.0964,660.1711,1271.8018Q660.686,1271.4911,661.3534,1271.5814Q661.5935,1271.6141,661.9015,1271.7465Q662.1745,1271.893,662.20935,1271.9257Q662.33813,1272.0283,662.43304,1272.1311Q662.5276,1272.2339,662.6126,1272.3632Q662.67694,1272.4822,662.7375,1272.6531Q662.80634,1272.9298,662.77655,1273.1252"/> </g> <g style="fill:rgb(255,255,255); fill-opacity:1.0; stroke-linejoin: miter"> <path d="M661.4154,1286.0306L661.37683,1286.2056Q661.24677,1286.5261,661.1469,1286.6134Q660.9761,1286.784,660.9245,1286.8206Q660.80597,1286.9001,660.65375,1286.9707Q660.4169,1287.0767,660.1612,1287.1075Q660.03326,1287.1229,659.90063,1287.1194Q659.83734,1287.1294,659.49225,1287.0668Q659.3889,1287.05,659.1359,1286.95Q659.059,1286.9186,658.90625,1286.8248Q658.6772,1286.6888,658.4991,1286.4705Q658.3396,1286.2892,658.2428,1285.9604Q658.19006,1285.7924,658.2224,1285.5359Q658.2437,1285.4156,658.2847,1285.3077Q658.4045,1285.0486,658.45215,1285.0116Q658.5932,1284.8322,658.8133,1284.7023Q658.92755,1284.6338,659.04926,1284.5847Q659.3603,1284.48,659.4315,1284.4828Q659.69775,1284.4446,659.99396,1284.4855Q660.2949,1284.5378,660.5414,1284.6516Q660.78375,1284.7823,660.838,1284.8226Q660.95776,1284.9159,661.0722,1285.0371Q661.14667,1285.1145,661.2516,1285.2694Q661.32965,1285.4208,661.3762,1285.559Q661.44,1285.7823,661.4154,1286.0306"/> </g> <g style="fill:rgb(0,0,0); fill-opacity:0.30588236; stroke-linejoin: miter"> <path d="M575.97327,1226.0582L576.95483,1225.7866Q583.29254,1224.0736,587.54956,1222.4508Q591.7463,1220.8562,599.0467,1217.1265Q597.29865,1218.4548,592.2617,1221.4377Q590.18945,1222.5916,588.5948,1223.2104Q586.3162,1224.1306,583.9044,1224.6694Q582.602,1224.9753,581.07166,1225.2587Q577.0506,1225.9473,575.97327,1226.0582"/> </g> <g style="fill:rgb(0,0,0); fill-opacity:0.20392157; stroke-linejoin: miter"> <path d="M730.9968,1225.2416Q738.7928,1229.5322,743.34454,1230.9443Q744.84216,1231.4043,746.4874,1231.79Q747.60516,1232.0244,749.8841,1232.4203Q752.03613,1232.7644,757.45044,1233.2567L756.3368,1233.0238Q749.17896,1231.5692,744.2931,1230.1112Q739.4979,1228.6855,730.9984,1225.2418 Z M619.7522,1226.972L622.35004,1249.5016L622.34937,1248.7488Q622.35895,1246.5104,622.2609,1244.0857Q622.14905,1242.0126,622.0956,1241.5443Q622.0207,1240.663,621.91296,1239.7249Q621.5244,1236.046,619.75256,1226.972 Z M703.6892,1244.6998L703.5909,1245.4879Q703.287,1247.8473,703.0609,1250.2404Q702.98846,1251.0391,702.9332,1251.8453L702.88336,1252.6538L702.84424,1253.467L702.81683,1254.2852L702.8021,1255.109L702.7992,1255.9381L702.80695,1256.7716Q702.8203,1257.6078,702.85077,1258.4513Q702.9224,1260.5579,703.1839,1264.4076L703.6892,1244.6998 Z M630.8635,1219.7579L631.92847,1222.2634Q638.8863,1238.8345,643.3548,1247.2794Q647.3553,1255.0087,654.674,1264.5125L630.8635,1219.7579 Z M701.0886,1243.5775Q690.33307,1264.4891,685.08,1272.015Q679.82477,1280.0323,669.5523,1290.269Q683.16315,1277.8118,688.26404,1269.8937Q694.164,1261.0913,700.1468,1245.8871L701.08984,1243.5776 Z M626.49835,1274.8776Q629.3629,1279.0432,631.2307,1281.0913Q633.13824,1283.104,633.60364,1283.4252Q634.4481,1284.1519,635.3814,1284.793Q636.31775,1285.4315,637.34314,1285.9841Q637.81256,1286.3026,640.58105,1287.4886Q643.39087,1288.6385,648.95575,1290.2291L647.6647,1289.6064Q639.1362,1285.5734,634.89624,1282.6957Q631.01636,1280.1487,626.49884,1274.8777 Z"/> </g> <g style="fill:rgb(0,0,0); fill-opacity:0.20784314; stroke-linejoin: miter"> <path d="M697.326,1209.7026L697.326,1209.7028Q705.2936,1213.4406,708.2071,1214.4056Q711.3165,1215.5338,715.3824,1215.9746L697.326,1209.7026"/> </g> <g style="fill:rgb(0,0,0); fill-opacity:0.20784314; stroke-linejoin: miter"> <path d="M625.1191,1206.6194L624.39813,1207.0186Q619.1864,1209.9459,615.7971,1211.2825Q612.9511,1212.4109,607.82007,1213.7893L625.1191,1206.6194"/> </g> <g style="fill:rgb(0,0,0); fill-opacity:1.0; stroke-linejoin: miter"> <path d="M623.92096,1194.7378L623.92096,1194.7379L623.92096,1194.7379L623.92096,1194.7378"/> </g> <g style="fill:rgb(0,0,0); fill-opacity:1.0; stroke-linejoin: miter"> <path d="M643.7469,1194.4235L642.55133,1200.8339L641.13885,1198.3629Q642.1566,1197.3055,642.58386,1196.6365Q643.02594,1195.9924,643.7469,1194.4235"/> </g> <g style="fill:rgb(0,0,0); fill-opacity:1.0; stroke-linejoin: miter"> <path d="M664.3521,1171.1155L664.3521,1171.1155Q664.08875,1164.0962,664.3521,1171.1155"/> </g> </g> </svg>